<?xml version="1.0" standalone="no"?>
<!DOCTYPE svg PUBLIC "-//W3C//DTD SVG 20010904//EN"
 "http://www.w3.org/TR/2001/REC-SVG-20010904/DTD/svg10.dtd">
<svg version="1.0" xmlns="http://www.w3.org/2000/svg"
 width="512.000000pt" height="512.000000pt" viewBox="0 0 512.000000 512.000000"
 preserveAspectRatio="xMidYMid meet">

<g transform="translate(0.000000,512.000000) scale(0.100000,-0.100000)"
fill="#337994" stroke="none">
<path d="M1991 4474 c-168 -45 -282 -162 -341 -352 -36 -117 -50 -139 -103
-163 -39 -17 -71 -19 -432 -19 -320 0 -402 -3 -450 -16 -158 -40 -286 -173
-330 -339 -22 -88 -23 -2371 0 -2458 42 -163 161 -290 316 -338 58 -18 112
-19 1333 -19 l1273 0 33 23 c50 33 72 70 77 124 5 59 -25 117 -77 147 -35 21
-46 21 -1297 26 -1256 5 -1262 5 -1290 26 -15 11 -36 36 -45 55 -17 32 -18
109 -18 1184 0 1283 -5 1193 69 1242 34 23 35 23 416 23 412 0 464 5 561 50
128 61 207 159 256 315 17 55 39 112 49 126 41 58 49 59 498 59 445 0 457 -1
498 -54 12 -14 31 -59 42 -99 48 -164 131 -276 249 -336 l62 -31 0 -150 c0
-126 3 -161 21 -213 54 -162 193 -286 358 -317 30 -5 181 -10 337 -10 l284 0
0 -382 c0 -352 2 -386 19 -424 25 -55 71 -87 135 -92 59 -4 105 20 143 77 l23
34 0 681 c0 748 0 746 -60 851 -35 61 -130 154 -185 183 -99 50 -123 52 -544
52 -504 0 -478 -9 -540 185 -18 55 -46 121 -62 147 -63 98 -167 172 -286 203
-82 22 -911 21 -992 -1z m2277 -874 c60 -37 72 -70 72 -202 l0 -118 -283 0
c-315 0 -328 3 -374 70 -21 30 -23 45 -23 151 l0 119 288 0 c269 0 289 -1 320
-20z"/>
<path d="M2355 3284 c-11 -2 -51 -11 -88 -20 -152 -35 -300 -117 -420 -233
-121 -115 -202 -250 -254 -418 -25 -81 -27 -102 -27 -253 0 -151 2 -172 27
-253 65 -211 201 -401 367 -514 110 -74 256 -133 385 -154 104 -16 298 -6 393
21 319 91 560 333 654 657 20 67 23 101 23 243 0 142 -3 176 -23 243 -94 324
-332 564 -654 658 -56 16 -107 22 -218 25 -80 1 -154 1 -165 -2z m267 -325
c210 -43 407 -233 462 -445 21 -80 21 -228 0 -308 -42 -165 -171 -321 -324
-394 -101 -48 -163 -62 -273 -62 -102 0 -179 19 -277 68 -94 46 -202 150 -253
243 -101 181 -101 417 0 598 75 135 231 255 383 295 66 18 209 20 282 5z"/>
<path d="M4110 1818 c-19 -13 -45 -43 -57 -68 -21 -40 -23 -58 -23 -196 l0
-152 -162 -4 c-143 -3 -167 -6 -198 -24 -105 -61 -109 -210 -6 -273 30 -19 49
-21 199 -21 l165 0 4 -167 c3 -148 5 -172 24 -203 59 -101 195 -104 268 -6 19
24 22 46 26 199 l5 172 172 5 c153 4 175 7 199 26 98 72 96 204 -3 265 -35 22
-50 24 -205 27 l-168 4 0 160 c0 178 -8 211 -63 250 -47 34 -132 36 -177 6z"/>
</g>
</svg>
