<?xml version="1.0" standalone="no"?>
<!DOCTYPE svg PUBLIC "-//W3C//DTD SVG 20010904//EN"
 "http://www.w3.org/TR/2001/REC-SVG-20010904/DTD/svg10.dtd">
<svg version="1.0" xmlns="http://www.w3.org/2000/svg"
 width="512.000000pt" height="512.000000pt" viewBox="0 0 512.000000 512.000000"
 preserveAspectRatio="xMidYMid meet">

<g transform="translate(0.000000,512.000000) scale(0.100000,-0.100000)"
fill="#000000" stroke="none">
<path d="M2393 5105 c-302 -55 -552 -247 -683 -528 -65 -138 -80 -221 -86
-457 l-6 -205 -35 -71 c-33 -67 -35 -77 -31 -150 4 -93 27 -148 88 -212 47
-49 80 -67 152 -86 l52 -13 18 -72 c34 -138 118 -277 218 -361 l50 -42 0 -97
0 -97 -457 -177 c-252 -98 -482 -192 -511 -210 -128 -77 -242 -213 -287 -343
-42 -122 -46 -216 -43 -1055 l3 -786 30 -48 c20 -32 45 -56 74 -72 44 -23 45
-23 436 -23 380 0 392 1 413 20 30 28 30 82 0 110 -19 17 -35 20 -115 20 l-93
0 0 750 0 751 -25 24 c-33 34 -77 33 -104 -1 -21 -26 -21 -33 -21 -775 l0
-749 -207 0 c-115 0 -215 5 -223 10 -13 8 -15 113 -15 842 0 778 1 837 18 893
37 120 112 221 215 288 72 47 596 256 610 243 4 -4 61 -116 127 -249 99 -200
126 -246 154 -264 42 -28 95 -29 139 -3 18 11 34 20 37 20 2 0 17 -19 33 -43
l30 -42 -115 -675 c-97 -574 -113 -680 -104 -710 7 -22 58 -86 136 -173 l126
-137 -159 0 c-146 0 -162 -2 -186 -21 -36 -28 -36 -80 1 -108 l26 -21 1042 2
1041 3 42 28 c23 15 52 46 64 70 22 41 23 50 26 402 2 198 1 374 -3 393 -12
64 -72 92 -120 56 -19 -14 -20 -30 -25 -400 -4 -327 -7 -386 -20 -394 -8 -5
-108 -10 -222 -10 l-208 0 0 749 c0 742 0 749 -21 775 -27 34 -71 35 -104 1
l-25 -24 0 -751 0 -750 -406 0 -405 0 125 138 c80 87 130 150 137 172 9 30 -7
139 -104 710 l-115 675 30 42 c16 24 31 43 33 43 3 0 19 -9 37 -20 42 -25 94
-25 135 0 27 16 54 63 158 271 107 212 129 250 145 246 10 -3 133 -49 272
-103 333 -128 407 -177 488 -319 58 -103 62 -132 67 -478 l5 -317 25 -20 c34
-26 56 -25 90 4 l28 24 3 249 c4 282 -7 415 -43 517 -45 128 -145 251 -273
334 -37 24 -227 103 -520 217 l-462 179 0 100 0 101 74 77 c99 104 156 215
190 369 5 22 13 28 47 33 87 14 178 81 218 161 13 25 28 75 34 109 9 57 8 71
-12 132 -12 38 -30 77 -39 88 -14 15 -18 52 -23 240 -5 179 -10 236 -27 298
-82 303 -308 547 -597 646 -146 50 -316 64 -462 37z m365 -165 c233 -66 417
-228 510 -448 45 -105 62 -201 62 -352 l0 -130 -27 6 c-40 10 -43 12 -43 39 0
26 -61 102 -191 236 -62 64 -81 78 -116 83 -45 8 -43 9 -213 -82 -220 -117
-438 -172 -687 -172 -133 0 -175 -15 -196 -70 -10 -27 -32 -40 -69 -40 -16 0
-18 11 -18 103 0 56 5 134 10 172 44 342 304 613 645 675 79 14 250 4 333 -20z
m265 -817 l87 -96 0 -316 c0 -245 -4 -328 -15 -371 -51 -192 -203 -344 -395
-395 -73 -19 -217 -19 -294 1 -174 45 -317 176 -385 352 -25 66 -25 73 -29
370 l-4 302 94 0 c250 1 547 81 758 204 41 24 80 44 85 44 6 0 49 -43 98 -95z
m-1183 -418 c0 -182 0 -183 -61 -142 -99 67 -108 201 -18 265 19 13 61 36 77
41 1 1 2 -73 2 -164z m1501 134 c33 -23 69 -94 69 -135 -1 -69 -58 -143 -123
-159 l-27 -7 0 167 0 167 27 -7 c15 -3 39 -15 54 -26z m-815 -1057 c99 -3 134
-1 200 16 43 11 87 23 97 27 15 6 17 0 17 -65 l0 -73 -136 -169 c-75 -92 -140
-168 -144 -168 -5 0 -69 75 -144 168 l-136 167 0 71 0 72 63 -20 c42 -14 100
-22 183 -26z m-208 -382 c73 -90 129 -167 125 -170 -24 -21 -255 -181 -258
-178 -15 16 -215 432 -210 437 11 10 189 79 200 77 5 -2 70 -76 143 -166z
m722 134 c52 -20 99 -40 103 -44 6 -5 -190 -419 -208 -438 -2 -2 -62 38 -134
89 -116 83 -129 95 -118 111 26 37 252 317 257 317 3 1 48 -15 100 -35z m-400
-462 c36 -25 66 -46 68 -48 2 -1 -9 -21 -24 -43 l-27 -41 -97 0 -97 0 -28 41
c-22 33 -24 44 -14 50 8 4 41 28 74 52 33 24 65 42 70 39 6 -3 39 -25 75 -50z
m-6 -309 c3 -16 51 -298 106 -628 56 -330 103 -607 105 -615 4 -14 -269 -325
-285 -325 -4 0 -71 70 -148 155 -105 115 -140 160 -137 175 3 11 50 288 105
615 55 327 103 607 106 623 5 26 7 27 74 27 67 0 69 -1 74 -27z"/>
</g>
</svg>
