<?xml version="1.0" standalone="no"?>
<!DOCTYPE svg PUBLIC "-//W3C//DTD SVG 20010904//EN"
 "http://www.w3.org/TR/2001/REC-SVG-20010904/DTD/svg10.dtd">
<svg version="1.0" xmlns="http://www.w3.org/2000/svg"
 width="512.000000pt" height="512.000000pt" viewBox="0 0 512.000000 512.000000"
 preserveAspectRatio="xMidYMid meet">

<g transform="translate(0.000000,512.000000) scale(0.100000,-0.100000)"
fill="#000000" stroke="none">
<path d="M1290 4945 c-337 -69 -587 -329 -639 -665 -9 -55 -11 -454 -9 -1525
3 -1581 -1 -1460 58 -1617 66 -177 261 -372 438 -438 152 -57 117 -55 909 -55
723 0 732 0 759 21 53 39 69 71 69 134 0 63 -16 95 -69 134 -27 21 -40 21
-749 26 -710 5 -723 5 -774 27 -163 66 -267 181 -308 340 -23 87 -23 2860 0
2948 45 172 179 305 352 350 86 22 2060 22 2146 0 173 -45 307 -178 352 -350
12 -49 15 -137 15 -507 0 -499 -1 -494 66 -544 31 -24 47 -29 94 -29 47 0 63
5 94 29 69 52 67 42 64 584 -4 521 -3 508 -58 654 -29 77 -104 191 -175 261
-68 70 -184 148 -263 177 -155 58 -74 55 -1237 57 -855 1 -1083 -1 -1135 -12z"/>
<path d="M1535 3986 c-67 -29 -105 -106 -91 -181 9 -47 59 -102 104 -115 25
-8 233 -10 634 -8 585 3 597 3 624 24 53 39 69 71 69 134 0 63 -16 95 -69 134
-27 21 -39 21 -634 23 -489 2 -613 0 -637 -11z"/>
<path d="M1535 3186 c-94 -41 -124 -168 -58 -247 52 -61 27 -59 793 -59 686 0
702 0 741 20 103 53 115 196 21 268 l-35 27 -716 2 c-580 2 -722 0 -746 -11z"/>
<path d="M3673 2865 c-201 -36 -365 -124 -513 -274 -129 -130 -212 -277 -257
-457 -26 -105 -23 -343 6 -449 40 -151 128 -308 234 -421 l57 -62 0 -417 c0
-288 4 -430 12 -456 26 -87 135 -169 224 -169 66 0 117 24 265 125 l139 95
148 -99 c163 -109 202 -126 273 -118 84 10 152 57 192 132 21 39 22 51 25 474
l3 434 59 65 c75 81 119 148 170 254 66 137 83 219 84 393 0 165 -11 229 -65
364 -70 177 -224 358 -388 459 -196 120 -445 168 -668 127z m302 -320 c88 -18
215 -82 284 -142 230 -201 287 -540 134 -803 -49 -83 -150 -184 -233 -233
-314 -183 -726 -61 -888 263 -95 189 -95 390 -2 576 132 261 418 399 705 339z
m-362 -1557 c117 -31 337 -31 454 0 45 12 84 22 87 22 3 0 6 -103 6 -230 l0
-230 -136 90 c-184 122 -184 122 -368 0 l-136 -90 0 230 c0 127 3 230 6 230 3
0 42 -10 87 -22z"/>
<path d="M1535 2546 c-67 -29 -105 -106 -91 -181 9 -47 59 -102 104 -115 25
-8 197 -10 514 -8 465 3 477 3 505 24 98 73 98 195 0 268 -28 21 -39 21 -515
23 -390 2 -493 0 -517 -11z"/>
<path d="M1535 1906 c-94 -41 -124 -168 -58 -247 50 -59 51 -59 528 -59 484 0
481 0 531 66 24 31 29 47 29 94 0 47 -5 63 -29 94 -50 67 -46 66 -533 66 -342
-1 -445 -4 -468 -14z"/>
</g>
</svg>
