<?xml version="1.0" standalone="no"?>
<!DOCTYPE svg PUBLIC "-//W3C//DTD SVG 20010904//EN"
 "http://www.w3.org/TR/2001/REC-SVG-20010904/DTD/svg10.dtd">
<svg version="1.0" xmlns="http://www.w3.org/2000/svg"
 width="512.000000pt" height="512.000000pt" viewBox="0 0 512.000000 512.000000"
 preserveAspectRatio="xMidYMid meet">

<g transform="translate(0.000000,512.000000) scale(0.100000,-0.100000)"
fill="#000000" stroke="none">
<path d="M2388 4745 c-458 -72 -824 -441 -893 -902 -11 -69 -15 -184 -15 -390
l0 -291 -187 -4 c-166 -4 -195 -7 -245 -27 -116 -45 -213 -142 -260 -259 l-23
-57 0 -1055 0 -1055 23 -57 c47 -117 143 -213 260 -260 l57 -23 1455 0 1455 0
57 23 c117 47 213 143 260 260 l23 57 0 1055 0 1055 -23 57 c-47 117 -144 214
-260 259 -50 20 -79 23 -244 27 l-188 4 0 291 c0 321 -11 432 -55 564 -170
505 -671 809 -1197 728z m376 -249 c165 -45 263 -103 386 -226 97 -97 144
-165 186 -268 57 -141 57 -147 63 -592 5 -332 9 -419 20 -436 31 -47 43 -49
313 -54 l256 -5 43 -30 c23 -16 53 -50 66 -74 l23 -45 -2 -1017 -3 -1017 -30
-43 c-16 -23 -50 -53 -74 -66 l-44 -23 -1407 0 -1407 0 -44 23 c-24 13 -57 43
-74 66 l-30 43 -3 1017 -2 1017 23 45 c13 24 43 58 66 74 l43 30 979 5 979 5
32 33 c28 28 33 39 33 82 0 43 -5 54 -33 82 l-32 33 -686 3 -685 2 3 333 c5
355 7 371 62 509 71 174 231 346 401 430 59 30 160 63 230 77 71 14 278 6 349
-13z"/>
</g>
</svg>
