<?xml version="1.0" standalone="no"?>
<!DOCTYPE svg PUBLIC "-//W3C//DTD SVG 20010904//EN"
 "http://www.w3.org/TR/2001/REC-SVG-20010904/DTD/svg10.dtd">
<svg version="1.0" xmlns="http://www.w3.org/2000/svg"
 width="512.000000pt" height="512.000000pt" viewBox="0 0 512.000000 512.000000"
 preserveAspectRatio="xMidYMid meet">

<g transform="translate(0.000000,512.000000) scale(0.100000,-0.100000)"
fill="#000000" stroke="none">
<path d="M2740 5113 c-114 -11 -260 -39 -364 -69 -168 -48 -385 -145 -443
-197 -46 -41 -17 -127 42 -127 14 0 62 20 108 44 113 62 242 112 372 146 177
46 247 55 445 55 198 0 268 -9 445 -55 564 -148 1022 -580 1209 -1141 72 -214
96 -396 96 -724 0 -149 4 -225 13 -256 8 -24 69 -159 135 -299 67 -141 122
-266 122 -278 0 -34 -24 -84 -53 -110 -18 -17 -45 -26 -98 -34 -123 -17 -195
-61 -244 -149 l-30 -54 -5 -375 -5 -376 -26 -49 c-31 -62 -93 -110 -158 -124
-43 -9 -92 -5 -353 34 -332 48 -351 48 -435 -1 -90 -52 -123 -128 -123 -280 0
-98 -1 -104 -20 -104 -11 0 -116 9 -233 20 -606 57 -1300 120 -1317 120 -19 0
-20 7 -20 139 0 153 -7 174 -62 187 -22 5 -33 0 -58 -24 l-30 -30 0 -125 0
-124 -65 -5 c-78 -7 -143 -41 -184 -98 -45 -63 -53 -108 -49 -295 2 -139 6
-177 21 -206 24 -47 71 -95 121 -122 l41 -22 1055 0 1055 0 41 22 c52 28 108
90 125 139 8 22 14 77 14 124 0 101 -23 158 -85 214 -39 35 -119 66 -172 66
l-28 0 0 106 c0 112 11 147 53 173 30 19 66 16 377 -29 316 -46 343 -45 456
10 110 54 186 162 205 293 5 34 9 207 9 384 l0 322 31 35 c32 37 79 56 139 56
48 0 129 40 173 85 69 71 100 179 77 265 -7 25 -66 158 -133 295 l-120 250 -8
295 c-8 322 -21 430 -78 631 -54 192 -157 405 -281 581 -85 122 -326 363 -450
451 -191 135 -467 256 -700 306 -164 35 -400 50 -550 34z m-145 -4603 c681
-62 1000 -95 1023 -105 80 -36 82 -202 2 -242 -20 -10 -242 -12 -1043 -10
l-1019 2 -29 33 -29 32 0 153 c1 107 5 159 14 176 14 25 51 50 76 51 8 0 461
-40 1005 -90z"/>
<path d="M1571 5071 c-25 -25 -34 -74 -29 -160 4 -83 23 -111 75 -111 61 0 73
25 73 145 0 94 -2 106 -22 125 -28 25 -72 26 -97 1z"/>
<path d="M510 4628 c-38 -42 -27 -74 53 -155 82 -82 110 -91 152 -48 43 42 34
71 -48 153 -81 80 -117 92 -157 50z"/>
<path d="M2570 4578 c-81 -84 -91 -120 -44 -157 46 -36 71 -28 151 52 80 80
88 105 52 151 -15 19 -30 26 -55 26 -29 0 -44 -10 -104 -72z"/>
<path d="M1500 4635 c-8 -2 -49 -9 -90 -15 -95 -16 -224 -61 -320 -112 -300
-159 -516 -464 -577 -813 -23 -132 -13 -338 21 -465 34 -122 120 -296 190
-385 140 -176 250 -367 297 -515 l22 -67 -22 -22 c-46 -46 -51 -77 -51 -306 0
-195 2 -219 20 -255 18 -36 66 -80 88 -80 11 0 22 -24 22 -49 0 -36 62 -140
111 -186 27 -25 75 -58 107 -73 l57 -27 255 0 255 0 57 27 c110 51 202 167
222 278 4 24 15 40 35 51 15 9 38 36 49 61 20 41 22 60 22 256 0 124 -4 222
-11 239 -5 15 -23 42 -39 58 l-29 30 39 104 c63 166 132 282 269 456 87 109
171 274 207 405 34 127 44 333 21 465 -42 238 -148 445 -318 616 -204 208
-457 316 -754 324 -77 2 -147 2 -155 0z m359 -175 c375 -92 660 -413 722 -810
15 -99 6 -275 -20 -375 -27 -105 -106 -262 -175 -350 -147 -186 -257 -380
-313 -551 l-27 -84 -427 0 -427 0 -27 83 c-57 174 -146 332 -301 537 -151 200
-214 377 -214 603 1 481 349 893 817 967 92 14 296 4 392 -20z m256 -2520 l0
-195 -497 -3 -498 -2 0 193 c0 107 3 197 7 200 3 4 227 6 497 5 l491 -3 0
-195z m-105 -360 c0 -25 -42 -91 -77 -119 -58 -48 -87 -53 -324 -49 -215 3
-216 3 -256 30 -48 32 -89 81 -98 121 l-7 27 381 0 c257 0 381 -3 381 -10z"/>
<path d="M1513 4211 c-48 -22 -91 -79 -100 -134 -3 -20 -9 -40 -14 -42 -4 -3
-24 6 -44 20 -97 65 -208 33 -290 -83 -41 -60 -42 -140 -2 -201 15 -23 25 -45
23 -50 -3 -5 -23 -11 -44 -15 -117 -18 -180 -148 -142 -288 17 -61 110 -128
178 -128 18 0 15 -15 -13 -56 -32 -47 -41 -96 -26 -146 14 -45 89 -131 135
-155 46 -24 117 -19 172 11 25 14 50 26 54 26 4 0 11 -21 15 -47 13 -86 103
-153 205 -153 109 0 186 62 205 163 8 42 16 45 54 17 54 -38 139 -43 197 -12
11 6 41 33 66 60 74 79 84 160 32 238 -13 19 -24 39 -24 43 0 5 17 12 37 16
110 20 171 108 161 230 -9 99 -66 168 -151 182 -48 7 -53 17 -29 51 27 36 44
105 36 139 -11 50 -54 112 -100 148 -74 56 -146 59 -219 9 -21 -14 -41 -22
-45 -17 -4 4 -12 28 -19 53 -18 62 -44 95 -94 119 -57 27 -155 28 -214 2z
m154 -143 c6 -7 13 -30 16 -51 3 -20 15 -50 26 -66 25 -35 95 -71 137 -71 28
0 90 26 126 52 15 11 23 8 54 -23 l36 -36 -31 -48 c-69 -108 -14 -238 110
-261 48 -10 59 -21 59 -65 0 -42 -18 -59 -63 -59 -29 0 -83 -35 -110 -72 -40
-54 -32 -146 18 -214 15 -20 14 -24 -10 -53 -32 -38 -53 -39 -102 -5 -33 22
-46 25 -96 22 -86 -6 -141 -54 -155 -138 -6 -36 -13 -46 -35 -54 -17 -6 -37
-6 -54 0 -22 7 -29 18 -35 53 -20 118 -152 179 -253 116 -52 -32 -65 -31 -100
5 -25 26 -28 33 -17 48 27 37 52 99 52 130 0 71 -60 146 -129 158 -60 11 -71
21 -71 63 0 44 11 55 59 65 124 23 179 161 106 266 -27 38 -27 41 -11 65 25
39 61 52 84 32 25 -23 86 -47 119 -47 71 0 145 65 159 141 9 48 21 59 64 59
21 0 42 -6 47 -12z"/>
<path d="M1535 3748 c-74 -26 -139 -95 -165 -172 -16 -51 -8 -141 19 -193 39
-78 145 -143 231 -143 102 0 212 80 245 179 21 65 16 140 -14 199 -26 51 -99
115 -149 130 -48 14 -126 14 -167 0z m154 -164 c36 -30 49 -81 30 -125 -14
-35 -62 -69 -97 -69 -36 0 -80 27 -97 60 -25 49 -19 88 19 126 44 44 99 47
145 8z"/>
<path d="M92 3590 c-22 -9 -42 -46 -42 -76 0 -8 11 -26 25 -39 22 -23 31 -25
120 -25 53 0 105 5 116 11 48 25 44 105 -7 128 -29 13 -179 14 -212 1z"/>
<path d="M2932 3590 c-22 -9 -42 -46 -42 -76 0 -8 11 -26 25 -39 22 -23 31
-25 120 -25 53 0 105 5 116 11 48 25 44 105 -7 128 -29 13 -179 14 -212 1z"/>
<path d="M559 2571 c-53 -53 -69 -75 -69 -98 0 -61 55 -96 108 -69 15 8 53 41
85 74 44 47 57 67 57 91 0 42 -31 71 -76 71 -31 0 -45 -9 -105 -69z"/>
<path d="M2520 2620 c-39 -39 -27 -76 48 -152 77 -77 106 -85 147 -43 43 42
34 72 -43 148 -75 74 -113 86 -152 47z"/>
</g>
</svg>
