<?xml version="1.0" standalone="no"?>
<!DOCTYPE svg PUBLIC "-//W3C//DTD SVG 20010904//EN"
 "http://www.w3.org/TR/2001/REC-SVG-20010904/DTD/svg10.dtd">
<svg version="1.0" xmlns="http://www.w3.org/2000/svg"
 width="512.000000pt" height="512.000000pt" viewBox="0 0 512.000000 512.000000"
 preserveAspectRatio="xMidYMid meet">

<g transform="translate(0.000000,512.000000) scale(0.100000,-0.100000)"
fill="#000000" stroke="none">
<path d="M1885 4798 c-124 -24 -264 -126 -323 -236 -48 -91 -62 -159 -62 -309
l0 -132 -572 -3 -573 -3 -63 -26 c-116 -49 -210 -143 -259 -258 l-28 -66 0
-1530 c0 -1723 -6 -1582 78 -1706 77 -115 193 -189 332 -210 36 -6 906 -8
2190 -7 l2130 3 59 23 c117 44 197 111 260 215 69 116 66 33 66 1671 0 1035
-3 1491 -11 1528 -26 124 -119 252 -228 311 -101 56 -118 57 -713 57 l-548 0
0 133 c0 151 -14 218 -62 309 -61 114 -199 213 -332 237 -75 14 -1269 13
-1341 -1z m1328 -252 c59 -22 107 -64 133 -120 21 -45 24 -65 24 -178 l0 -128
-810 0 -810 0 0 128 c0 113 3 133 24 178 26 56 74 98 133 120 55 19 1251 19
1306 0z m1532 -695 c22 -10 52 -31 67 -47 61 -65 58 -24 58 -956 l0 -853 -24
-51 c-26 -56 -74 -98 -133 -120 -30 -10 -172 -13 -690 -14 l-653 0 0 151 0
151 -28 28 c-48 48 -80 50 -782 50 -702 0 -734 -2 -782 -50 l-28 -28 0 -151 0
-151 -652 0 c-519 1 -661 4 -691 14 -59 22 -107 64 -133 120 l-24 51 0 853 c0
932 -3 891 58 956 15 16 45 37 67 47 39 18 118 19 2185 19 2067 0 2146 -1
2185 -19z m-1625 -2226 l0 -315 -560 0 -560 0 0 315 0 315 560 0 560 0 0 -315z
m-2057 -63 l687 -3 0 -193 c0 -184 1 -195 23 -226 12 -18 35 -43 50 -54 28
-21 34 -21 736 -21 l708 0 36 28 c63 48 67 63 67 276 l0 190 688 3 687 3 63
26 62 27 0 -437 0 -437 -26 -52 c-30 -61 -74 -98 -140 -118 -71 -21 -4217 -21
-4288 0 -66 20 -110 57 -140 118 l-26 52 0 437 0 437 63 -27 62 -26 688 -3z"/>
</g>
</svg>
